<svg id="visual" viewBox="0 0 900 600" width="900" height="600" xmlns="http://www.w3.org/2000/svg" xmlns:xlink="http://www.w3.org/1999/xlink" version="1.1"><g stroke-width="1" stroke-linejoin="bevel"><path d="M504 283L579 225L533 215Z" fill="#081a28" stroke="#081a28"></path><path d="M504 283L631 336L579 225Z" fill="#205a7a" stroke="#205a7a"></path><path d="M531 87L426 191L533 215Z" fill="#246688" stroke="#246688"></path><path d="M533 215L426 191L504 283Z" fill="#15384f" stroke="#15384f"></path><path d="M727 179L605 119L579 225Z" fill="#205a7a" stroke="#205a7a"></path><path d="M579 225L605 119L533 215Z" fill="#277297" stroke="#277297"></path><path d="M530 437L633 396L631 336Z" fill="#246688" stroke="#246688"></path><path d="M633 396L676 376L631 336Z" fill="#00101c" stroke="#00101c"></path><path d="M631 336L723 289L579 225Z" fill="#277297" stroke="#277297"></path><path d="M605 119L531 87L533 215Z" fill="#277297" stroke="#277297"></path><path d="M370 331L530 437L504 283Z" fill="#297ea6" stroke="#297ea6"></path><path d="M504 283L530 437L631 336Z" fill="#081a28" stroke="#081a28"></path><path d="M676 376L723 289L631 336Z" fill="#00101c" stroke="#00101c"></path><path d="M426 191L370 331L504 283Z" fill="#112e42" stroke="#112e42"></path><path d="M723 289L727 179L579 225Z" fill="#081a28" stroke="#081a28"></path><path d="M531 87L435 97L426 191Z" fill="#277297" stroke="#277297"></path><path d="M280 226L297 327L370 331Z" fill="#19435d" stroke="#19435d"></path><path d="M727 179L663 90L605 119Z" fill="#112e42" stroke="#112e42"></path><path d="M605 119L613 0L531 87Z" fill="#0c2435" stroke="#0c2435"></path><path d="M370 331L362 406L530 437Z" fill="#277297" stroke="#277297"></path><path d="M404 526L534 505L530 437Z" fill="#112e42" stroke="#112e42"></path><path d="M530 437L600 500L633 396Z" fill="#0c2435" stroke="#0c2435"></path><path d="M633 396L667 493L676 376Z" fill="#246688" stroke="#246688"></path><path d="M534 505L600 500L530 437Z" fill="#246688" stroke="#246688"></path><path d="M370 331L297 327L362 406Z" fill="#205a7a" stroke="#205a7a"></path><path d="M280 226L370 331L426 191Z" fill="#205a7a" stroke="#205a7a"></path><path d="M600 500L667 493L633 396Z" fill="#19435d" stroke="#19435d"></path><path d="M676 376L818 318L723 289Z" fill="#15384f" stroke="#15384f"></path><path d="M723 289L800 175L727 179Z" fill="#1d4e6b" stroke="#1d4e6b"></path><path d="M727 179L801 99L663 90Z" fill="#297ea6" stroke="#297ea6"></path><path d="M818 318L800 175L723 289Z" fill="#15384f" stroke="#15384f"></path><path d="M531 87L489 0L435 97Z" fill="#19435d" stroke="#19435d"></path><path d="M284 129L280 226L426 191Z" fill="#246688" stroke="#246688"></path><path d="M613 0L489 0L531 87Z" fill="#112e42" stroke="#112e42"></path><path d="M284 129L426 191L435 97Z" fill="#297ea6" stroke="#297ea6"></path><path d="M727 0L613 0L663 90Z" fill="#1d4e6b" stroke="#1d4e6b"></path><path d="M663 90L613 0L605 119Z" fill="#19435d" stroke="#19435d"></path><path d="M804 433L818 318L676 376Z" fill="#081a28" stroke="#081a28"></path><path d="M211 426L309 424L297 327Z" fill="#112e42" stroke="#112e42"></path><path d="M297 327L309 424L362 406Z" fill="#19435d" stroke="#19435d"></path><path d="M362 406L404 526L530 437Z" fill="#1d4e6b" stroke="#1d4e6b"></path><path d="M372 0L284 129L435 97Z" fill="#15384f" stroke="#15384f"></path><path d="M309 424L404 526L362 406Z" fill="#0c2435" stroke="#0c2435"></path><path d="M534 505L611 600L600 500Z" fill="#205a7a" stroke="#205a7a"></path><path d="M600 500L611 600L667 493Z" fill="#112e42" stroke="#112e42"></path><path d="M900 86L801 99L800 175Z" fill="#19435d" stroke="#19435d"></path><path d="M800 175L801 99L727 179Z" fill="#246688" stroke="#246688"></path><path d="M667 493L804 433L676 376Z" fill="#00101c" stroke="#00101c"></path><path d="M489 0L372 0L435 97Z" fill="#246688" stroke="#246688"></path><path d="M801 99L727 0L663 90Z" fill="#19435d" stroke="#19435d"></path><path d="M461 600L611 600L534 505Z" fill="#0c2435" stroke="#0c2435"></path><path d="M667 493L779 529L804 433Z" fill="#246688" stroke="#246688"></path><path d="M405 600L461 600L404 526Z" fill="#112e42" stroke="#112e42"></path><path d="M404 526L461 600L534 505Z" fill="#19435d" stroke="#19435d"></path><path d="M280 226L198 305L297 327Z" fill="#277297" stroke="#277297"></path><path d="M272 539L405 600L404 526Z" fill="#297ea6" stroke="#297ea6"></path><path d="M172 185L198 305L280 226Z" fill="#277297" stroke="#277297"></path><path d="M707 600L779 529L667 493Z" fill="#112e42" stroke="#112e42"></path><path d="M900 332L900 211L818 318Z" fill="#205a7a" stroke="#205a7a"></path><path d="M818 318L900 211L800 175Z" fill="#1d4e6b" stroke="#1d4e6b"></path><path d="M801 99L805 0L727 0Z" fill="#15384f" stroke="#15384f"></path><path d="M900 332L818 318L804 433Z" fill="#246688" stroke="#246688"></path><path d="M900 439L900 332L804 433Z" fill="#19435d" stroke="#19435d"></path><path d="M900 86L805 0L801 99Z" fill="#00101c" stroke="#00101c"></path><path d="M372 0L289 0L284 129Z" fill="#246688" stroke="#246688"></path><path d="M284 129L172 185L280 226Z" fill="#0c2435" stroke="#0c2435"></path><path d="M272 539L404 526L309 424Z" fill="#00101c" stroke="#00101c"></path><path d="M198 305L211 426L297 327Z" fill="#277297" stroke="#277297"></path><path d="M611 600L707 600L667 493Z" fill="#081a28" stroke="#081a28"></path><path d="M177 64L172 185L284 129Z" fill="#246688" stroke="#246688"></path><path d="M106 464L209 508L211 426Z" fill="#19435d" stroke="#19435d"></path><path d="M209 508L272 539L309 424Z" fill="#277297" stroke="#277297"></path><path d="M900 211L900 86L800 175Z" fill="#205a7a" stroke="#205a7a"></path><path d="M900 462L804 433L779 529Z" fill="#112e42" stroke="#112e42"></path><path d="M900 462L900 439L804 433Z" fill="#081a28" stroke="#081a28"></path><path d="M900 600L900 462L779 529Z" fill="#00101c" stroke="#00101c"></path><path d="M289 0L233 0L284 129Z" fill="#081a28" stroke="#081a28"></path><path d="M707 600L781 600L779 529Z" fill="#19435d" stroke="#19435d"></path><path d="M133 388L211 426L198 305Z" fill="#19435d" stroke="#19435d"></path><path d="M211 426L209 508L309 424Z" fill="#205a7a" stroke="#205a7a"></path><path d="M233 0L177 64L284 129Z" fill="#19435d" stroke="#19435d"></path><path d="M88 76L117 226L172 185Z" fill="#1d4e6b" stroke="#1d4e6b"></path><path d="M172 185L117 226L198 305Z" fill="#112e42" stroke="#112e42"></path><path d="M61 332L133 388L198 305Z" fill="#297ea6" stroke="#297ea6"></path><path d="M900 86L900 0L805 0Z" fill="#081a28" stroke="#081a28"></path><path d="M209 508L266 600L272 539Z" fill="#246688" stroke="#246688"></path><path d="M272 539L266 600L405 600Z" fill="#277297" stroke="#277297"></path><path d="M171 600L266 600L209 508Z" fill="#205a7a" stroke="#205a7a"></path><path d="M0 379L106 464L133 388Z" fill="#297ea6" stroke="#297ea6"></path><path d="M133 388L106 464L211 426Z" fill="#19435d" stroke="#19435d"></path><path d="M781 600L900 600L779 529Z" fill="#00101c" stroke="#00101c"></path><path d="M117 226L61 332L198 305Z" fill="#246688" stroke="#246688"></path><path d="M0 297L61 332L117 226Z" fill="#277297" stroke="#277297"></path><path d="M233 0L129 0L177 64Z" fill="#205a7a" stroke="#205a7a"></path><path d="M177 64L88 76L172 185Z" fill="#277297" stroke="#277297"></path><path d="M129 0L88 76L177 64Z" fill="#277297" stroke="#277297"></path><path d="M106 464L171 600L209 508Z" fill="#246688" stroke="#246688"></path><path d="M61 332L0 379L133 388Z" fill="#00101c" stroke="#00101c"></path><path d="M106 464L64 600L171 600Z" fill="#297ea6" stroke="#297ea6"></path><path d="M0 213L0 297L117 226Z" fill="#15384f" stroke="#15384f"></path><path d="M0 94L0 213L88 76Z" fill="#081a28" stroke="#081a28"></path><path d="M88 76L0 213L117 226Z" fill="#112e42" stroke="#112e42"></path><path d="M0 297L0 379L61 332Z" fill="#19435d" stroke="#19435d"></path><path d="M0 0L0 94L88 76Z" fill="#297ea6" stroke="#297ea6"></path><path d="M0 532L64 600L106 464Z" fill="#19435d" stroke="#19435d"></path><path d="M129 0L0 0L88 76Z" fill="#0c2435" stroke="#0c2435"></path><path d="M0 379L0 532L106 464Z" fill="#15384f" stroke="#15384f"></path><path d="M0 532L0 600L64 600Z" fill="#297ea6" stroke="#297ea6"></path></g></svg>