<svg xmlns="http://www.w3.org/2000/svg" version="1.1" xmlns:xlink="http://www.w3.org/1999/xlink" xmlns:svgjs="http://svgjs.dev/svgjs" width="1440" height="560" preserveAspectRatio="none" viewBox="0 0 1440 560"><g mask="url(&quot;#SvgjsMask1000&quot;)" fill="none"><rect width="1440" height="560" x="0" y="0" fill="#0e2a47"></rect><path d="M384.52 174.26L391.73 174.26L391.73 181.47L384.52 181.47z" fill="#e73635"></path><path d="M802.16 437.8L802.75 437.8L802.75 474.33L802.16 474.33z" fill="#e73635"></path><path d="M897.94 148.04 a19.2 19.2 0 1 0 38.4 0 a19.2 19.2 0 1 0 -38.4 0z" fill="#037b0b"></path><path d="M1143.22 452.83L1184.69 452.83L1184.69 500.77L1143.22 500.77z" fill="#d3b714"></path><path d="M1269.28 491.3a52.2 52.2 0 1 0 76.44-71.1z" stroke="#e73635"></path><path d="M1079.15 366.66L1133.57 366.66L1133.57 421.08L1079.15 421.08z" fill="#e73635"></path><path d="M1120.97 97.82 a53.28 53.28 0 1 0 106.56 0 a53.28 53.28 0 1 0 -106.56 0z" stroke="#d3b714"></path><path d="M645.31 466.48L648.81 466.48L648.81 508.76L645.31 508.76z" stroke="#e73635"></path><path d="M509.44 50.73a17.86 17.86 0 1 0-32.01 15.86z" stroke="#037b0b"></path><path d="M1120.55 244.47 a29.86 29.86 0 1 0 59.72 0 a29.86 29.86 0 1 0 -59.72 0z" fill="#037b0b"></path><path d="M1284.39 541.96L1329.68 541.96L1329.68 558.63L1284.39 558.63z" fill="#e73635"></path><path d="M307.69 539.7L332.57 539.7L332.57 589.31L307.69 589.31z" fill="#e73635"></path><path d="M510.06 96.18 a37.92 37.92 0 1 0 75.84 0 a37.92 37.92 0 1 0 -75.84 0z" fill="#e73635"></path><path d="M252.78 290.81L262.44 290.81L262.44 323.32L252.78 323.32z" stroke="#e73635"></path><path d="M319.72 146.19L370.17 146.19L370.17 196.64L319.72 196.64z" stroke="#037b0b"></path><path d="M130.78 492.81L166.73 492.81L166.73 500.52L130.78 500.52z" fill="#037b0b"></path><path d="M745.83 357.27L776.97 357.27L776.97 365.14L745.83 365.14z" fill="#d3b714"></path><path d="M186.24 534.76L213.98 534.76L213.98 562.5L186.24 562.5z" stroke="#d3b714"></path><path d="M647.42 150.91L690.92 150.91L690.92 193.77L647.42 193.77z" stroke="#037b0b"></path><path d="M996.2 206.38L1013.83 206.38L1013.83 224.01L996.2 224.01z" fill="#d3b714"></path><path d="M878.71 535.27L897.57 535.27L897.57 554.13L878.71 554.13z" fill="#e73635"></path><path d="M537.04 181.33L569.79 181.33L569.79 214.08L537.04 214.08z" stroke="#e73635"></path><path d="M385.56 532.78L388.9 532.78L388.9 536.12L385.56 536.12z" stroke="#037b0b"></path><path d="M163.03 383.67 a17.43 17.43 0 1 0 34.86 0 a17.43 17.43 0 1 0 -34.86 0z" fill="#037b0b"></path><path d="M687.06 384.77L699.12 384.77L699.12 396.83L687.06 396.83z" stroke="#d3b714"></path><path d="M813.13 411.8 a34.5 34.5 0 1 0 69 0 a34.5 34.5 0 1 0 -69 0z" stroke="#037b0b"></path><path d="M927.62 82.48 a5.79 5.79 0 1 0 11.58 0 a5.79 5.79 0 1 0 -11.58 0z" fill="#d3b714"></path><path d="M963.85 351.04a7.13 7.13 0 1 0-5.71-13.06z" fill="#e73635"></path><path d="M1058.42 305.05 a1.37 1.37 0 1 0 2.74 0 a1.37 1.37 0 1 0 -2.74 0z" fill="#d3b714"></path><path d="M1295.02 459.86L1333.85 459.86L1333.85 498.69L1295.02 498.69z" fill="#e73635"></path><path d="M175.9 27.5 a32.07 32.07 0 1 0 64.14 0 a32.07 32.07 0 1 0 -64.14 0z" stroke="#d3b714"></path><path d="M566.92 217.5 a4.38 4.38 0 1 0 8.76 0 a4.38 4.38 0 1 0 -8.76 0z" fill="#d3b714"></path><path d="M1083.14 351.84 a33.58 33.58 0 1 0 67.16 0 a33.58 33.58 0 1 0 -67.16 0z" fill="#037b0b"></path></g><defs><mask id="SvgjsMask1000"><rect width="1440" height="560" fill="#ffffff"></rect></mask></defs></svg>